<mxfile host="app.diagrams.net" modified="2024-07-23T16:23:23.479Z" agent="Mozilla/5.0 (Windows NT 10.0; Win64; x64) AppleWebKit/537.36 (KHTML, like Gecko) Chrome/126.0.0.0 Safari/537.36 Edg/126.0.0.0" version="24.6.4" etag="Res5t2j2rfZYgaYJpQRB" type="github">
  <diagram name="第 1 页" id="XSI3F4ksXVECD8CLCqr2">
    <mxGraphModel>
      <root>
        <mxCell id="0" />
        <mxCell id="1" parent="0" />
      </root>
    </mxGraphModel>
  </diagram>
</mxfile>
